<svg width="24" height="24" viewBox="0 0 24 24" fill="none" xmlns="http://www.w3.org/2000/svg">
<path d="M17.0625 5.18359C16.6406 4.86719 16.0781 5.00781 15.832 5.42969L15.2695 6.41406C15.0586 6.80078 15.1641 7.25781 15.4805 7.50391C17.0273 8.66406 17.8711 10.4219 17.9062 12.2148C17.9062 15.5547 15.1992 18.1562 12 18.1562C8.69531 18.1562 6.05859 15.5195 6.09375 12.25C6.09375 10.3164 7.00781 8.59375 8.48438 7.50391C8.80078 7.25781 8.90625 6.80078 8.69531 6.41406L8.13281 5.42969C7.88672 5.00781 7.32422 4.86719 6.90234 5.18359C4.6875 6.76562 3.24609 9.36719 3.28125 12.2852C3.28125 17.0664 7.21875 21.0039 12 20.9688C16.8164 20.9688 20.7188 17.0664 20.7188 12.25C20.7188 9.33203 19.2773 6.76562 17.0625 5.18359ZM13.4062 12.5312V4.09375C13.4062 3.63672 13.0195 3.25 12.5625 3.25H11.4375C10.9453 3.25 10.5938 3.63672 10.5938 4.09375V12.5312C10.5938 13.0234 10.9453 13.375 11.4375 13.375H12.5625C13.0195 13.375 13.4062 13.0234 13.4062 12.5312Z" fill="#142F43"/>
</svg>
